<svg data-v-423bf9ae="" xmlns="http://www.w3.org/2000/svg" viewBox="0 0 394 91" class="iconLeft"><!----><!----><!----><g data-v-423bf9ae="" id="74b74c5e-8333-49bc-99e0-c7ea0e2150d2" fill="black" transform="matrix(5.617978096008301,0,0,5.617978096008301,103.56407928466797,14.221035957336426)"><path d="M8.01 0.56L8.01 0.56C7.35 0.29 6.65 0.15 5.94 0.15C2.41 0.15 0.66 2.81 0.67 5.47C0.69 8.09 2.45 10.71 5.94 10.71C6.65 10.71 7.35 10.57 8.01 10.30C8.57 10.08 8.22 9.21 7.64 9.45C7.10 9.66 6.54 9.79 5.94 9.79C3.07 9.79 1.60 7.64 1.58 5.45C1.58 2.98 3.37 1.08 5.89 1.08C6.50 1.08 7.08 1.19 7.64 1.43C8.22 1.65 8.57 0.80 8.01 0.56ZM7.36 7.50L7.36 7.50C6.89 7.77 6.37 7.88 5.88 7.87C4.68 7.83 3.60 6.99 3.60 5.45C3.60 3.26 5.74 2.46 7.36 3.36C7.90 3.67 8.34 2.84 7.80 2.56C5.53 1.29 2.67 2.56 2.67 5.45C2.67 7.52 4.19 8.78 5.89 8.81C6.54 8.82 7.20 8.67 7.80 8.32C8.34 8.02 7.90 7.22 7.36 7.50ZM11.77 0.81L11.77 0.81L11.77 4.56C11.77 4.82 11.98 5.03 12.24 5.03L15.05 5.03C15.30 5.03 15.51 4.82 15.51 4.56L15.51 0.81C15.51 0.56 15.30 0.35 15.05 0.35C14.78 0.35 14.57 0.56 14.57 0.81L14.57 4.09L12.71 4.09L12.71 0.81C12.71 0.56 12.50 0.35 12.24 0.35C11.98 0.35 11.77 0.56 11.77 0.81ZM15.51 10.18L15.51 10.18L15.51 6.43C15.51 6.17 15.30 5.96 15.05 5.96L12.24 5.96C11.98 5.96 11.77 6.17 11.77 6.43L11.77 10.18C11.77 10.43 11.98 10.64 12.24 10.64C12.50 10.64 12.71 10.43 12.71 10.18L12.71 6.90L14.57 6.90L14.57 10.18C14.57 10.43 14.78 10.64 15.05 10.64C15.30 10.64 15.51 10.43 15.51 10.18ZM10.84 10.18L10.84 10.18L10.84 0.81C10.84 0.56 10.63 0.35 10.37 0.35C10.11 0.35 9.90 0.56 9.90 0.81L9.90 10.18C9.90 10.43 10.11 10.64 10.37 10.64C10.63 10.64 10.84 10.43 10.84 10.18ZM16.45 0.81L16.45 0.81L16.45 10.18C16.45 10.43 16.66 10.64 16.91 10.64C17.18 10.64 17.39 10.43 17.39 10.18L17.39 0.81C17.39 0.56 17.18 0.35 16.91 0.35C16.66 0.35 16.45 0.56 16.45 0.81ZM29.79 3.88L29.79 3.88C29.44 2.77 28.74 1.83 27.83 1.16C26.92 0.52 25.83 0.14 24.63 0.14C17.53 0.14 17.53 10.82 24.63 10.82C25.83 10.82 26.92 10.43 27.83 9.79C28.74 9.13 29.44 8.18 29.79 7.08C29.86 6.83 29.74 6.55 29.48 6.48C29.23 6.41 28.95 6.54 28.88 6.79C28.59 7.70 28.03 8.47 27.26 9.02C26.53 9.55 25.62 9.86 24.63 9.86C18.79 9.86 18.79 1.09 24.63 1.09C25.62 1.09 26.53 1.41 27.26 1.93C28.03 2.49 28.59 3.26 28.88 4.16C28.95 4.41 29.23 4.55 29.48 4.47C29.74 4.40 29.86 4.13 29.79 3.88ZM21.74 7.17L21.74 7.17C22.04 7.69 22.46 8.12 22.96 8.43C23.46 8.71 24.04 8.88 24.63 8.88C25.56 8.88 26.40 8.50 27.02 7.87C27.61 7.25 27.99 6.41 27.99 5.47C27.99 4.54 27.61 3.70 27.02 3.08C26.40 2.46 25.56 2.09 24.63 2.09C24.04 2.09 23.46 2.24 22.96 2.53C22.46 2.83 22.04 3.26 21.74 3.78C21.60 4.02 21.69 4.31 21.91 4.44C22.15 4.56 22.43 4.48 22.55 4.24C22.78 3.88 23.09 3.57 23.45 3.36C23.80 3.15 24.19 3.04 24.63 3.04C25.30 3.04 25.90 3.32 26.32 3.75C26.77 4.19 27.03 4.80 27.03 5.47C27.03 6.16 26.77 6.78 26.32 7.21C25.90 7.66 25.30 7.92 24.63 7.92C24.19 7.92 23.79 7.80 23.45 7.59C23.09 7.39 22.78 7.07 22.55 6.71C22.43 6.47 22.15 6.40 21.91 6.52C21.69 6.66 21.60 6.93 21.74 7.17ZM40.12 10.16L40.12 10.16L40.12 4.24C40.12 3.99 39.91 3.78 39.65 3.78C39.48 3.78 39.34 3.86 39.26 3.99L36.85 7.42L34.47 3.98C34.31 3.77 34.01 3.71 33.80 3.86C33.67 3.95 33.60 4.10 33.60 4.24L33.60 4.24L33.60 10.16C33.60 10.43 33.81 10.64 34.06 10.64C34.34 10.64 34.55 10.43 34.55 10.16L34.55 5.75L36.47 8.51C36.50 8.55 36.54 8.60 36.58 8.64C36.79 8.78 37.10 8.72 37.25 8.51L39.17 5.75L39.17 10.16C39.17 10.43 39.38 10.64 39.65 10.64C39.91 10.64 40.12 10.43 40.12 10.16ZM32.65 10.16L32.65 10.16L32.65 0.67C32.65 0.41 32.44 0.20 32.17 0.20C31.91 0.20 31.70 0.41 31.70 0.67L31.70 10.16C31.70 10.43 31.91 10.64 32.17 10.64C32.44 10.64 32.65 10.43 32.65 10.16ZM42.03 10.16L42.03 10.16L42.03 0.67C42.03 0.41 41.82 0.20 41.54 0.20C41.29 0.20 41.08 0.41 41.08 0.67L41.08 10.16C41.08 10.43 41.29 10.64 41.54 10.64C41.82 10.64 42.03 10.43 42.03 10.16ZM39.44 0.39L39.44 0.39L36.85 4.10L34.29 0.39C34.13 0.18 33.82 0.13 33.61 0.28C33.40 0.43 33.36 0.73 33.50 0.94L36.47 5.18C36.50 5.24 36.54 5.28 36.58 5.31C36.79 5.47 37.10 5.42 37.25 5.19L40.22 0.94C40.36 0.73 40.32 0.43 40.11 0.28C39.89 0.13 39.59 0.18 39.44 0.39ZM48.27 5.03L48.27 5.03C50.15 5.03 50.15 2.23 48.27 2.23L46.62 2.23C46.00 2.23 46.00 3.16 46.62 3.16L48.27 3.16C48.92 3.16 48.92 4.10 48.27 4.10C47.91 4.10 47.28 3.99 47.28 4.56C47.28 5.12 47.91 5.03 48.27 5.03ZM45.22 10.16L45.22 10.16L45.22 1.29L48.44 1.29C51.45 1.29 51.45 5.96 48.44 5.96L46.62 5.96C46.37 5.96 46.14 6.17 46.14 6.43L46.14 10.16C46.14 10.78 47.10 10.78 47.10 10.16L47.10 6.90L48.44 6.90C52.67 6.90 52.68 0.36 48.44 0.36L44.74 0.36C44.49 0.36 44.28 0.56 44.28 0.84L44.28 10.16C44.28 10.78 45.22 10.78 45.22 10.16Z"></path></g><!----><g data-v-423bf9ae="" id="6b95ef5e-9ae5-4187-9551-4d5ae09b3276" transform="matrix(1.0000839233398438,0,0,1.0000839233398438,-4.664361476898193,-4.0079731941223145)" stroke="none" fill="black"><path d="M50 5C31.65 4.997 14.429 16.3 7.75 34.531c-8.549 23.336 3.445 49.17 26.781 57.719s49.17-3.445 57.719-26.781l-4.688-1.719C81.956 79.065 67.26 90 50 90c-22.091 0-40-17.912-40-40s17.909-40 40-40c17.308 0 32.053 10.991 37.625 26.375l4.688-1.688A44.985 44.985 0 0 0 65.469 7.75 44.907 44.907 0 0 0 50 5zm-.063 10c-14.271.027-27.647 8.84-32.812 23.031-6.611 18.164 2.742 38.233 20.906 44.844 18.143 6.603 38.177-2.722 44.813-20.844L50 50l32.875-11.969a34.96 34.96 0 0 0-20.906-20.906A34.919 34.919 0 0 0 49.937 15zM55 25a5 5 0 1 1 0 10 5 5 0 0 1 0-10z"></path></g><!----></svg>