<?xml version="1.0" encoding="UTF-8" standalone="no"?>
<!-- Generator: Gravit.io -->
<svg xmlns="http://www.w3.org/2000/svg" xmlns:xlink="http://www.w3.org/1999/xlink" style="isolation:isolate" viewBox="0 0 85 86" width="85pt" height="86pt"><defs><clipPath id="_clipPath_welruDgAGpcpEaIIaZSMPIkhyKD9Qvut"><rect width="85" height="86"/></clipPath></defs><g clip-path="url(#_clipPath_welruDgAGpcpEaIIaZSMPIkhyKD9Qvut)"><g><g><path d=" M 42.926 0 C 25.425 -0.003 9 10.777 2.63 28.165 C -5.524 50.422 5.916 75.062 28.173 83.215 C 50.43 91.369 75.069 79.93 83.223 57.673 L 78.751 56.033 C 73.405 70.64 59.388 81.069 42.926 81.069 C 21.857 81.069 4.776 63.986 4.776 42.919 C 4.776 21.853 21.857 4.769 42.926 4.769 C 59.434 4.769 73.497 15.252 78.811 29.924 L 83.283 28.314 C 78.966 16.387 69.592 6.981 57.68 2.623 C 52.954 0.888 47.96 0 42.926 0 Z  M 42.866 9.538 C 29.255 9.563 16.498 17.969 11.572 31.504 C 5.266 48.828 14.187 67.969 31.511 74.274 C 48.815 80.572 67.922 71.678 74.252 54.394 L 42.926 42.919 L 74.281 31.504 C 70.91 22.235 63.61 14.935 54.342 11.564 C 50.665 10.22 46.781 9.533 42.866 9.538 L 42.866 9.538 Z  M 47.695 19.075 C 50.329 19.075 52.464 21.21 52.464 23.844 C 52.464 26.478 50.329 28.613 47.695 28.613 C 45.061 28.613 42.926 26.478 42.926 23.844 C 42.926 21.21 45.061 19.075 47.695 19.075 Z " fill="rgb(0,0,0)"/></g></g></g></svg>